<svg viewBox="0 0 100 100" xmlns="http://www.w3.org/2000/svg">
  <rect width="100" height="100" rx="24" fill="#ffeef6"/>
  <ellipse cx="50" cy="72" rx="38" ry="14" fill="#ffffff" stroke="#f3cede" stroke-width="2"/>
  <path d="M20 66 a30 26 0 0 1 60 0 q0 6 -6 6 h-48 q-6 0 -6 -6 z" fill="#b57edc"/>
  <path d="M24 58 q10 -14 26 -8 q14 -16 26 4 q-6 -2 -10 2 q-8 -10 -18 -2 q-12 -6 -24 4 z" fill="#f45c78" opacity="0.85"/>
  <path d="M30 64 q12 8 40 -2" stroke="#6fa8ff" stroke-width="5" fill="none" stroke-linecap="round"/>
  <circle cx="40" cy="48" r="3.5" fill="#fff" opacity="0.8"/>
  <circle cx="62" cy="44" r="2.5" fill="#fff" opacity="0.6"/>
  <g transform="rotate(30 74 34)">
    <rect x="71" y="30" width="6" height="26" rx="3" fill="#cdd6e2"/>
    <ellipse cx="74" cy="24" rx="10" ry="12" fill="#eef1f6" stroke="#9aa6b8" stroke-width="1.5"/>
  </g>
</svg>
